<!DOCTYPE svg PUBLIC "-//W3C//DTD SVG 1.1//EN" "http://www.w3.org/Graphics/SVG/1.1/DTD/svg11.dtd">
<!-- Uploaded to: SVG Repo, www.svgrepo.com, Transformed by: SVG Repo Mixer Tools -->
<svg height="140px" width="140px" version="1.1" id="Layer_1" xmlns="http://www.w3.org/2000/svg" xmlns:xlink="http://www.w3.org/1999/xlink" viewBox="-51.2 -51.2 614.40 614.40" xml:space="preserve" fill="#000000" stroke="#000000" stroke-width="0.512">
<g id="SVGRepo_bgCarrier" stroke-width="0">
<path transform="translate(-51.2, -51.2), scale(38.4)" fill="#ffffff" d="M9.166.33a2.25 2.25 0 00-2.332 0l-5.25 3.182A2.25 2.25 0 00.5 5.436v5.128a2.25 2.25 0 001.084 1.924l5.25 3.182a2.25 2.25 0 002.332 0l5.25-3.182a2.25 2.25 0 001.084-1.924V5.436a2.25 2.25 0 00-1.084-1.924L9.166.33z" strokewidth="0"/>
</g>
<g id="SVGRepo_tracerCarrier" stroke-linecap="round" stroke-linejoin="round" stroke="#ffffff" stroke-width="1.024"/>
<g id="SVGRepo_iconCarrier"> <g> <path style="fill:#E6E6E6;" d="M468.358,362.661c-3.474,0-6.292-2.816-6.292-6.292V199.372c0-3.475,2.818-6.292,6.292-6.292 s6.292,2.816,6.292,6.292v156.997C474.65,359.844,471.833,362.661,468.358,362.661z"/> <path style="fill:#E6E6E6;" d="M42.778,362.661c-3.474,0-6.292-2.816-6.292-6.292V199.372c0-3.475,2.818-6.292,6.292-6.292 s6.292,2.816,6.292,6.292v156.997C49.07,359.844,46.253,362.661,42.778,362.661z"/> </g> <circle style="fill:#F2F2F2;" cx="252.827" cy="258.546" r="164.284"/> <circle style="fill:#E6E6E6;" cx="252.827" cy="258.546" r="106.137"/> <path style="fill:#F2F2F2;" d="M468.358,99.572c24.103,0,43.642,29.56,43.642,66.029s-19.539,50.048-43.642,50.048 s-43.642-13.579-43.642-50.048S444.255,99.572,468.358,99.572z"/> <g> <path style="fill:#F97E62;" d="M487.857,393.912c0.949,14.263-8.053,26.495-19.493,26.495c-11.451,0-20.454-12.232-19.505-26.495 l4.301-64.821c0.423-6.467,4.747-11.445,9.941-11.445h5.262h5.262c5.182,0,9.506,4.979,9.941,11.445L487.857,393.912z"/> <path style="fill:#F97E62;" d="M62.277,393.912c0.949,14.263-8.053,26.495-19.493,26.495c-11.451,0-20.454-12.232-19.505-26.495 l4.301-64.821c0.423-6.467,4.747-11.445,9.941-11.445h4.347h6.177c5.182,0,9.506,4.979,9.941,11.445L62.277,393.912z"/> </g> <path style="fill:#F2F2F2;" d="M68.397,101.746v64.468c0,4.704-3.813,8.517-8.517,8.517h-0.013c-4.704,0-8.517-3.813-8.517-8.517 v-64.468l-8.58-12.576l-8.58,12.576v64.468c0,4.704-3.813,8.517-8.517,8.517l0,0c-4.704,0-8.517-3.813-8.517-8.517v-64.468 L8.58,89.17L0,101.746v81.564c0,11.417,4.445,22.159,12.529,30.255c8.288,8.273,19.366,12.737,31.101,12.509 c23.435-0.455,41.927-20.192,41.927-43.631v-80.698l-8.58-12.576L68.397,101.746z"/> </g>
</svg>